<?xml version="1.0" encoding="UTF-8"?>
<svg width="176px" height="164px" viewBox="0 0 176 164" version="1.1" xmlns="http://www.w3.org/2000/svg" xmlns:xlink="http://www.w3.org/1999/xlink">
    <!-- Generator: Sketch 60.1 (88133) - https://sketch.com -->
    <title>Cloud Functions for Firebase (7- Raw Icon, Light)</title>
    <desc>Created with Sketch.</desc>
    <g id="Page-1" stroke="none" stroke-width="1" fill="none" fill-rule="evenodd">
        <g id="Cloud-Functions-for-Firebase-(7--Raw-Icon,-Light)" transform="translate(-8.000000, -14.000000)">
            <polygon id="Path" points="0 0 192 0 192 192 0 192"></polygon>
            <path d="M160.056,134.048 L160.056,57.968 L133.112,31.024 L150.064,14.064 L184,48 L184,134.16 L183.944,134.192 L183.944,144.024 L150.04,177.936 L133.112,161 L160.056,134.048 Z M31.944,134.024 L58.888,160.976 L41.936,177.936 L8,144 L8,57.84 L8.056,57.808 L8.056,47.976 L41.96,14.064 L58.888,31 L31.944,57.952 L31.944,134.032 L31.944,134.024 Z M60.008,108.024 C53.361,108.024 47.972,102.635 47.972,95.988 C47.972,89.341 53.361,83.952 60.008,83.952 C66.653,83.952 72.04,89.339 72.04,95.984 C72.04,102.629 66.653,108.016 60.008,108.016 L60.008,108.024 Z M95.992,108.024 C89.345,108.024 83.956,102.635 83.956,95.988 C83.956,89.341 89.345,83.952 95.992,83.952 C102.637,83.952 108.024,89.339 108.024,95.984 C108.024,102.629 102.637,108.016 95.992,108.016 L95.992,108.024 Z M131.976,108.024 C125.329,108.024 119.94,102.635 119.94,95.988 C119.94,89.341 125.329,83.952 131.976,83.952 C138.621,83.952 144.008,89.339 144.008,95.984 C144.008,102.629 138.621,108.016 131.976,108.016 L131.976,108.024 Z" id="Shape" fill="#FFFFFF"></path>
        </g>
    </g>
</svg>