<svg xmlns="http://www.w3.org/2000/svg" viewBox="0 0 300 100">
  <g fill="none" transform="translate(5 17)">
    <g transform="translate(56.42 16.55)">
      <path fill="currentcolor" d="M1.80544747 22.1919585C3.27237354 24.7120623 5.98054475 26.7431907 10.0051881 26.7431907 14.1802853 26.7431907 16.6627756 24.8625162 16.6627756 21.7405966 16.6627756 18.2049287 13.1271077 17.226978 9.2153048 16.3242542 5.1154345 15.3463035.902723735 14.0298314.902723735 8.65110246.902723735 4.40077821 4.7769131 1.20363165 9.96757458 1.20363165 15.5719844 1.20363165 18.919585 4.13748379 18.919585 5.86770428 18.919585 7.07133593 17.3398184 7.71076524 17.2645914 7.59792477 16.0233463 5.37872892 13.3904021 3.68612192 10.0428016 3.68612192 6.28145266 3.68612192 3.68612192 5.64202335 3.68612192 8.57587549 3.68612192 12.0363165 6.50713359 12.7509728 10.6070039 13.7289235 14.8949416 14.7444877 19.4461738 16.3242542 19.4461738 21.6653696 19.4461738 26.2542153 15.7224384 29.2632944 10.0428016 29.2632944 4.02464332 29.2632944.150453956 25.9156939.150453956 23.9597925.112840467 22.6809339 1.73022049 22.0415045 1.80544747 22.1919585zM22.304799 8.95201038C22.304799 8.8767834 22.7185473 8.65110246 23.2075227 8.65110246 24.1102464 8.65110246 24.9753567 9.10246433 24.9753567 11.2840467L24.9753567 11.773022C26.3670558 9.77950713 28.5486381 8.31258106 31.2568093 8.31258106 34.3787289 8.31258106 36.7859922 9.77950713 37.8391699 12.5629053 39.1932555 10.1932555 41.6005188 8.31258106 44.9105058 8.31258106 49.9130999 8.31258106 52.5836576 11.2088197 52.5836576 16.7003891L52.5836576 27.5706874C52.5836576 28.5862516 52.0946822 28.849546 51.3800259 28.849546L51.079118 28.849546C50.3644617 28.849546 49.8754864 28.5486381 49.8754864 27.5706874L49.8754864 16.8884565C49.8754864 12.9390402 48.1452659 10.8702983 44.7224384 10.8702983 42.2775616 10.8702983 39.9455253 12.4876783 38.7795071 14.8949416L38.7795071 27.5706874C38.7795071 28.5862516 38.2905318 28.849546 37.5758755 28.849546L37.2749676 28.849546C36.5603113 28.849546 36.0713359 28.5486381 36.0713359 27.5706874L36.0713359 17.076524C36.0713359 12.9014267 34.3411154 10.8702983 30.9182879 10.8702983 28.4734112 10.8702983 26.1413748 12.4876783 24.9753567 14.8949416L24.9753567 27.5706874C24.9753567 28.5862516 24.4863813 28.849546 23.771725 28.849546L23.4708171 28.849546C22.7561608 28.849546 22.2671855 28.5486381 22.2671855 27.5706874L22.2671855 8.95201038 22.304799 8.95201038zM68.9079118 16.8508431L69.3216602 16.8508431 69.3216602 16.1361868C69.3216602 12.7133593 67.3281453 10.8326848 63.7172503 10.8326848 60.5201038 10.8326848 58.4513619 12.4500649 57.3605707 14.5188067 57.3605707 14.5564202 55.8184176 14.4059663 55.8184176 12.9390402 55.8184176 11.5097276 58.6394293 8.35019455 63.9053178 8.35019455 68.9455253 8.35019455 71.9546044 11.2840467 71.9546044 16.0609598L71.9546044 28.5862516C71.9546044 28.6614786 71.540856 28.8871595 71.0518807 28.8871595 70.1491569 28.8871595 69.3216602 28.4357977 69.3216602 26.2542153L69.3216602 25.5019455C67.7418936 27.7963684 65.0713359 29.1880674 61.8741894 29.1880674 57.5486381 29.1880674 55.0285344 26.9688716 55.0285344 23.6212711 55.0661479 18.9571984 59.692607 17.0389105 68.9079118 16.8508431zM62.1750973 26.8936446C66.2749676 26.8936446 69.3216602 24.3359274 69.3216602 20.8002594L69.3216602 18.9571984 68.155642 18.9948119C61.3476005 19.2581064 57.849546 20.461738 57.849546 23.5836576 57.849546 25.614786 59.4669261 26.8936446 62.1750973 26.8936446zM75.7535668 8.95201038C75.7535668 8.8767834 76.1673152 8.65110246 76.6562905 8.65110246 77.5590143 8.65110246 78.4241245 9.10246433 78.4241245 11.2840467L78.4241245 12.4500649C79.2516213 9.74189364 81.0194553 8.31258106 83.690013 8.31258106 85.5330739 8.31258106 86.5862516 9.06485084 86.5862516 10.3437095 86.5862516 11.3592737 85.9092088 11.848249 85.8339818 11.773022 85.232166 11.2840467 84.5551232 10.9455253 83.4267185 10.9455253 79.8910506 10.9455253 78.4993515 14.6692607 78.4993515 19.7470817L78.4993515 27.5706874C78.4993515 28.5862516 78.0103761 28.849546 77.2957198 28.849546L76.9948119 28.849546C76.2801556 28.849546 75.7911803 28.5486381 75.7911803 27.5706874L75.7911803 8.95201038 75.7535668 8.95201038zM90.2723735 11.2464332L88.4293126 11.2464332C87.4137484 11.2464332 87.150454 10.8702983 87.150454 10.155642L87.150454 9.8923476C87.150454 9.17769131 87.4513619 8.80155642 88.4293126 8.80155642L90.2723735 8.80155642 90.2723735 5.34111543C90.2723735 4.32555123 90.7613489 4.06225681 91.4760052 4.06225681L91.7769131 4.06225681C92.4915694 4.06225681 92.9429313 4.36316472 92.9429313 5.34111543L92.9429313 8.80155642 98.2464332 8.80155642C99.2619974 8.80155642 99.5252918 9.17769131 99.5252918 9.8923476L99.5252918 10.155642C99.5252918 10.8702983 99.2243839 11.2464332 98.2464332 11.2464332L92.9429313 11.2464332 92.9429313 22.5680934C92.9429313 25.5019455 93.695201 26.8560311 95.9143969 26.8560311 97.306096 26.8560311 98.2840467 26.2542153 98.998703 25.3891051 99.07393 25.3138781 99.9014267 25.690013 99.9014267 26.7431907 99.9014267 27.8715953 98.4345006 29.1880674 95.8015564 29.1880674 91.9273671 29.1880674 90.2347601 26.9688716 90.2347601 22.8313878L90.2347601 11.2464332 90.2723735 11.2464332z"/>
      <path fill="currentcolor" d="M107.649805 3.27237354C107.649805 2.40726329 108.364462 1.692607 109.229572 1.692607L116.150454 1.692607C122.46952 1.692607 126.080415 4.66407263 126.080415 9.8923476 126.080415 15.2710765 122.582361 18.2049287 115.811933 18.2049287L110.470817 18.2049287 110.470817 27.6083009C110.470817 28.3229572 110.057069 28.8871595 109.229572 28.8871595L108.853437 28.8871595C108.063554 28.8871595 107.649805 28.4734112 107.649805 27.6083009L107.649805 3.27237354zM116.075227 15.6848249C120.776913 15.6848249 123.184176 13.69131 123.184176 9.96757458 123.184176 6.20622568 120.814527 4.25032425 116.225681 4.25032425L110.508431 4.25032425 110.508431 15.6848249 116.075227 15.6848249zM136.9131 8.31258106C142.51751 8.31258106 146.166018 12.2619974 146.166018 18.3177691L146.166018 18.5810636C146.166018 19.3333333 145.86511 19.4837873 145.037613 19.4837873L129.57847 19.4837873C129.80415 23.7341115 132.888457 26.7431907 137.138781 26.7431907 141.01297 26.7431907 142.780804 25.0881971 143.946822 23.2075227 144.022049 23.0946822 145.526589 23.4708171 145.526589 24.7496757 145.526589 26.1413748 142.51751 29.1880674 137.138781 29.1880674 131.083009 29.1880674 126.870298 24.9377432 126.870298 18.844358 126.907912 12.7885863 131.158236 8.31258106 136.9131 8.31258106zM143.307393 17.1893645C143.044099 13.2775616 140.636835 10.7198444 136.9131 10.7198444 133.151751 10.7198444 130.255512 13.3904021 129.69131 17.1893645L143.307393 17.1893645zM148.723735 8.95201038C148.723735 8.8767834 149.137484 8.65110246 149.626459 8.65110246 150.529183 8.65110246 151.394293 9.10246433 151.394293 11.2840467L151.394293 11.9610895C152.785992 9.81712062 155.080415 8.31258106 158.164721 8.31258106 163.43061 8.31258106 166.063554 11.8106355 166.063554 17.076524L166.063554 27.5706874C166.063554 28.5862516 165.574578 28.849546 164.859922 28.849546L164.559014 28.849546C163.844358 28.849546 163.355383 28.5486381 163.355383 27.5706874L163.355383 17.2645914C163.355383 13.3151751 161.399481 10.8702983 158.014267 10.8702983 154.929961 10.8702983 152.635538 12.6005188 151.46952 15.0830091L151.46952 27.5706874C151.46952 28.5862516 150.980545 28.849546 150.265888 28.849546L149.964981 28.849546C149.250324 28.849546 148.761349 28.5486381 148.761349 27.5706874L148.761349 8.95201038 148.723735 8.95201038zM169.787289 23.6964981C171.141375 25.539559 173.285344 26.8936446 176.595331 26.8936446 179.905318 26.8936446 181.748379 25.539559 181.748379 23.5460441 181.748379 21.1763943 179.642023 20.6498054 175.918288 19.8599222 172.833982 19.1828794 168.959792 18.3177691 168.959792 14.2931258 168.959792 10.7574578 171.968872 8.27496757 176.557717 8.27496757 181.409857 8.27496757 183.892348 10.5693904 183.892348 12.07393 183.892348 13.1271077 182.463035 13.616083 182.387808 13.5032425 181.259403 11.773022 179.265888 10.5693904 176.557717 10.5693904 173.285344 10.5693904 171.555123 11.9610895 171.555123 13.9169909 171.555123 16.0609598 173.435798 16.6251621 177.12192 17.4150454 180.319066 18.1297017 184.418936 18.9948119 184.418936 23.0946822 184.418936 26.7808042 181.409857 29.150454 176.557717 29.150454 171.254215 29.150454 168.357977 26.5927367 168.357977 25.0881971 168.320363 24.0350195 169.674449 23.6212711 169.787289 23.6964981zM186.901427 2.06874189C186.901427.865110246 187.540856.263294423 188.744488.263294423 189.910506.263294423 190.512322.865110246 190.512322 2.06874189 190.512322 3.27237354 189.872892 3.87418936 188.669261 3.87418936 187.540856 3.83657588 186.901427 3.23476005 186.901427 2.06874189zM187.315175 9.96757458C187.315175 8.95201038 187.80415 8.68871595 188.518807 8.68871595L188.819715 8.68871595C189.534371 8.68871595 190.023346 8.98962387 190.023346 9.96757458L190.023346 27.5706874C190.023346 28.5862516 189.534371 28.849546 188.819715 28.849546L188.518807 28.849546C187.80415 28.849546 187.315175 28.5486381 187.315175 27.5706874L187.315175 9.96757458zM203.11284 8.31258106C209.055772 8.31258106 213.343709 12.7509728 213.343709 18.8067445 213.343709 24.8249027 209.055772 29.1880674 203.11284 29.1880674 197.132296 29.1880674 192.844358 24.7496757 192.844358 18.693904 192.806744 12.7133593 197.132296 8.31258106 203.11284 8.31258106zM203.11284 26.8184176C207.363165 26.8184176 210.597925 23.4332036 210.597925 18.8067445 210.597925 14.1802853 207.438392 10.7198444 203.11284 10.7198444 198.787289 10.7198444 195.590143 14.1050584 195.590143 18.7315175 195.590143 23.3579767 198.787289 26.8184176 203.11284 26.8184176zM215.93904 8.95201038C215.93904 8.8767834 216.352789 8.65110246 216.841764 8.65110246 217.744488 8.65110246 218.609598 9.10246433 218.609598 11.2840467L218.609598 11.9610895C220.001297 9.81712062 222.29572 8.31258106 225.380026 8.31258106 230.645914 8.31258106 233.278859 11.8106355 233.278859 17.076524L233.278859 27.5706874C233.278859 28.5862516 232.789883 28.849546 232.075227 28.849546L231.774319 28.849546C231.059663 28.849546 230.570687 28.5486381 230.570687 27.5706874L230.570687 17.2645914C230.570687 13.3151751 228.614786 10.8702983 225.229572 10.8702983 222.145266 10.8702983 219.850843 12.6005188 218.684825 15.0830091L218.684825 27.5706874C218.684825 28.5862516 218.19585 28.849546 217.481193 28.849546L217.180285 28.849546C216.465629 28.849546 215.976654 28.5486381 215.976654 27.5706874L215.976654 8.95201038 215.93904 8.95201038z"/>
    </g>
    <g fill="currentcolor">
      <ellipse cx="44.085" cy="9.934" rx="6.658" ry="8.651" transform="rotate(-9.178 44.085 9.934)"/>
      <path d="M33.2503243,21.3268482 C27.3450065,21.2516213 14.5940337,22.8690013 4.47600519,28.5486381 C4.21271077,28.6990921 4.36316472,29.075227 4.66407263,29 C17.9416342,25.9909209 27.6459144,27.6459144 32.4980545,31.4448768 C32.4980545,31.4448768 32.4980545,31.4448768 32.535668,31.4448768 C32.8741894,31.7081712 37.7263294,35.9584955 31.6705577,45.6627756 C26.8184176,53.2607004 16.3994812,61.6108949 0.300907912,65.3722438 C-0.112840467,65.4474708 -8.60422844e-16,66.0492866 0.413748379,66.0116732 C22.154345,63.3411154 36.0337224,55.0285344 44.0830091,40.0583658 C51.6057069,25.8780804 41.7133593,21.3268482 33.2503243,21.3268482 Z"/>
    </g>
  </g>
</svg>