<?xml version="1.0" encoding="UTF-8"?>
<svg width="284px" height="99px" viewBox="0 0 284 99" version="1.1" xmlns="http://www.w3.org/2000/svg" xmlns:xlink="http://www.w3.org/1999/xlink">
    <!-- Generator: Sketch 60.1 (88133) - https://sketch.com -->
    <title>Rings_wh-RGB</title>
    <desc>Created with Sketch.</desc>
    <g id="Page-1" stroke="none" stroke-width="1" fill="none" fill-rule="evenodd">
        <g id="Rings_wh-RGB">
            <g id="Boundingbox">
                <rect id="Rectangle" x="0" y="0" width="284" height="99"></rect>
            </g>
            <g id="Audi" fill="#FFFFFF" fill-rule="nonzero">
                <path d="M234.693,0.461 C222.979,0.461 212.229,4.574 203.796,11.427 C195.361,4.574 184.611,0.461 172.899,0.461 C161.185,0.461 150.435,4.574 142.001,11.426 C133.567,4.573 122.817,0.461 111.103,0.461 C99.39,0.461 88.64,4.574 80.206,11.426 C71.771,4.574 61.021,0.461 49.307,0.461 C22.223,0.461 0.268,22.416 0.268,49.5 C0.268,76.584 22.223,98.539 49.307,98.539 C61.021,98.539 71.771,94.426 80.205,87.573 C88.639,94.426 99.389,98.539 111.102,98.539 C122.816,98.539 133.566,94.426 142,87.573 C150.435,94.426 161.185,98.539 172.898,98.539 C184.611,98.539 195.361,94.426 203.795,87.573 C212.229,94.426 222.979,98.539 234.692,98.539 C261.776,98.539 283.731,76.584 283.731,49.5 C283.731,22.416 261.777,0.461 234.693,0.461 Z M203.796,72.009 C199.188,65.694 196.461,57.917 196.461,49.5 C196.461,41.083 199.188,33.307 203.796,26.991 C208.404,33.306 211.131,41.083 211.131,49.5 C211.131,57.917 208.404,65.693 203.796,72.009 Z M142,72.008 C137.392,65.693 134.666,57.916 134.666,49.5 C134.666,41.083 137.392,33.308 142,26.992 C146.608,33.307 149.334,41.083 149.334,49.5 C149.334,57.916 146.608,65.692 142,72.008 Z M80.205,72.009 C75.596,65.693 72.87,57.917 72.87,49.5 C72.87,41.083 75.596,33.307 80.205,26.991 C84.814,33.306 87.54,41.083 87.54,49.5 C87.54,57.917 84.813,65.693 80.205,72.009 Z M11.075,49.5 C11.075,28.385 28.192,11.268 49.307,11.268 C58.066,11.268 66.132,14.22 72.579,19.175 C66,27.521 62.063,38.047 62.063,49.5 C62.063,60.952 66,71.479 72.579,79.825 C66.132,84.78 58.066,87.732 49.307,87.732 C28.192,87.732 11.075,70.615 11.075,49.5 Z M87.831,79.825 C94.41,71.479 98.346,60.952 98.346,49.5 C98.346,38.047 94.409,27.521 87.83,19.175 C94.277,14.22 102.342,11.268 111.101,11.268 C119.86,11.268 127.926,14.221 134.373,19.175 C127.793,27.521 123.857,38.048 123.857,49.5 C123.857,60.952 127.794,71.479 134.373,79.825 C127.926,84.78 119.86,87.732 111.101,87.732 C102.342,87.732 94.277,84.78 87.831,79.825 Z M149.626,79.825 C156.206,71.478 160.143,60.952 160.143,49.5 C160.143,38.047 156.206,27.521 149.626,19.175 C156.073,14.22 164.139,11.268 172.898,11.268 C181.657,11.268 189.723,14.22 196.169,19.175 C189.59,27.521 185.653,38.048 185.653,49.5 C185.653,60.952 189.59,71.479 196.169,79.825 C189.723,84.78 181.656,87.732 172.898,87.732 C164.139,87.732 156.073,84.78 149.626,79.825 Z M234.693,87.732 C225.933,87.732 217.868,84.78 211.422,79.825 C218.001,71.478 221.938,60.952 221.938,49.5 C221.938,38.047 218.001,27.521 211.422,19.175 C217.868,14.22 225.934,11.268 234.693,11.268 C255.808,11.268 272.925,28.385 272.925,49.5 C272.925,70.615 255.809,87.732 234.693,87.732 Z" id="Shape"></path>
            </g>
        </g>
    </g>
</svg>