<?xml version="1.0" encoding="UTF-8"?>
<svg width="180px" height="50px" viewBox="0 0 180 50" version="1.1" xmlns="http://www.w3.org/2000/svg" xmlns:xlink="http://www.w3.org/1999/xlink">
    <!-- Generator: Sketch 60.1 (88133) - https://sketch.com -->
    <title>hsbc</title>
    <desc>Created with Sketch.</desc>
    <g id="Page-1" stroke="none" stroke-width="1" fill="none" fill-rule="evenodd">
        <g id="hsbc">
            <rect id="Rectangle" fill="#FFFFFF" x="24" y="1" width="48" height="48"></rect>
            <polyline id="Fill-1" fill="#DA000A" fill-rule="nonzero" points="24.374 0.755 24.374 49.245 1.42108547e-14 25 24.374 0.755"></polyline>
            <polyline id="Fill-2" fill="#DA000A" fill-rule="nonzero" points="24.372 0.755 72.75 0.755 48.469 25.113 24.28 0.847 24.372 0.755"></polyline>
            <polyline id="Fill-3" fill="#DA000A" fill-rule="nonzero" points="72.677 49.245 72.677 0.755 97.051 25 72.677 49.245"></polyline>
            <polyline id="Fill-4" fill="#DA000A" fill-rule="nonzero" points="72.679 49.245 24.3 49.245 48.582 24.887 72.771 49.153 72.679 49.245"></polyline>
            <polyline id="Fill-5" fill="#000000" fill-rule="nonzero" points="104.878 35.017 109.357 35.017 109.357 26.5 118.019 26.5 118.019 35.017 122.498 35.017 122.498 14.712 118.019 14.712 118.019 22.99 109.357 22.99 109.357 14.712 104.878 14.712 104.878 35.017"></polyline>
            <path d="M124.928,28.719 C124.957,33.611 128.685,35.472 132.915,35.472 C138.269,35.472 141.651,32.827 141.651,29.101 C141.651,24.495 137.148,23.705 135.602,23.243 C130.705,21.78 130.007,21.509 130.007,19.944 C130.007,18.238 131.693,17.471 133.073,17.471 C135.034,17.471 136.25,18.345 136.447,20.398 L140.923,20.398 C140.984,16.008 137.722,14.342 133.266,14.342 C129.365,14.342 125.357,16.219 125.357,20.371 C125.357,24.182 128.541,25.329 131.435,26.229 C134.616,27.22 136.842,27.236 136.842,29.425 C136.842,31.416 134.683,32.173 133.166,32.173 C130.978,32.173 129.576,31.179 129.449,28.719 L124.928,28.719" id="Fill-6" fill="#000000" fill-rule="nonzero"></path>
            <path d="M148.345,26.144 L152.013,26.144 C153.929,26.144 155.49,26.969 155.49,29.044 C155.49,31.149 153.736,31.888 151.93,31.888 L148.345,31.888 L148.345,26.144 Z M143.958,35.017 L152.456,35.017 C156.349,35.017 160.246,33.623 160.246,29.3 C160.246,26.769 158.598,25.034 155.644,24.522 C158.359,23.669 159.501,22.076 159.501,20.086 C159.501,16.304 156.266,14.712 152.632,14.712 L143.958,14.712 L143.958,35.017 Z M148.345,17.926 L151.602,17.926 C153.157,17.926 154.941,18.579 154.941,20.513 C154.941,22.219 153.462,23.158 151.935,23.158 L148.345,23.158 L148.345,17.926 L148.345,17.926 Z" id="Fill-7" fill="#000000" fill-rule="nonzero"></path>
            <path d="M180,20.824 C179.803,16.723 176.493,14.285 171.834,14.285 C165.549,14.285 161.994,18.523 161.994,24.95 C161.994,31.83 165.265,35.472 171.834,35.472 C176.466,35.472 179.755,32.965 179.957,28.946 L175.345,28.946 C174.908,31.079 173.577,32.03 171.635,32.03 C167.881,32.03 166.629,28.391 166.629,25.006 C166.629,21.452 168.08,17.755 171.891,17.755 C173.839,17.755 175.114,19.196 175.244,20.824 L180,20.824" id="Fill-8" fill="#000000" fill-rule="nonzero"></path>
        </g>
    </g>
</svg>