<?xml version="1.0" encoding="UTF-8"?>
<svg viewBox="0 0 72 24" version="1.1" 
    xmlns="http://www.w3.org/2000/svg" 
    xmlns:xlink="http://www.w3.org/1999/xlink">
    <!-- Generator: Sketch 60.1 (88133) - https://sketch.com -->
    <title>Group 2</title>
    <desc>Created with Sketch.</desc>
    <g id="Page-1" stroke="none" stroke-width="1" fill="none" fill-rule="evenodd">
        <g id="Desktop" transform="translate(-450.000000, -449.000000)" fill="#343534">
            <g id="Group-2" transform="translate(450.000000, 449.000000)">
                <path d="M28.661,8.856 L28.661,12.179 L32.897,12.179 L32.897,13.184 L28.661,13.184 L28.661,17.38 L27.617,17.38 L27.617,7.851 L33.054,7.851 L33.054,8.856 L28.661,8.856 Z M34.866,17.38 L35.87,17.38 L35.87,7.458 L34.866,7.458 L34.866,17.38 Z M42.849,16.55 C42.651,16.799 42.413,17.011 42.127,17.17 C41.679,17.421 41.187,17.526 40.675,17.5250071 C40.173,17.522 39.676,17.425 39.237,17.174 C38.825,16.942 38.51,16.612 38.29,16.194 C38.052,15.741 37.959,15.236 37.957,14.728 L37.957,10.474 L38.975,10.474 L38.975,14.727 C38.975,15.063 39.031,15.401 39.181,15.702 C39.316,15.967 39.51,16.172 39.768,16.32 C40.059,16.487 40.397,16.544 40.729,16.546 C41.016,16.546 41.298,16.502 41.567,16.398 C41.822,16.302 42.044,16.153 42.234,15.959 C42.44,15.744 42.582,15.484 42.682,15.206 C42.805,14.859 42.847,14.478 42.849,14.111 L42.849,10.474 L43.853,10.474 L43.853,17.38 L42.849,17.38 L42.849,16.55 Z M48.594,14.631 L46.463,17.38 L45.221,17.38 L47.98,13.835 L45.379,10.474 L46.62,10.474 L48.594,13.026 L50.58,10.474 L51.808,10.474 L49.22,13.823 L51.964,17.38 L50.724,17.38 L48.594,14.631 Z M53.847,9.236 C53.719,9.233 53.602,9.205 53.496,9.14 C53.391,9.079 53.307,8.995 53.247,8.892 C53.181,8.784 53.153,8.665 53.15,8.535 C53.153,8.411 53.183,8.297 53.247,8.191 C53.308,8.089 53.393,8.008 53.494,7.949 C53.602,7.883 53.721,7.854 53.851,7.851 C53.976,7.854 54.096,7.883 54.202,7.948 C54.305,8.008 54.389,8.089 54.45,8.191 C54.515,8.297 54.545,8.411 54.548,8.539 C54.545,8.665 54.516,8.784 54.452,8.89 C54.39,8.995 54.307,9.079 54.203,9.139 C54.096,9.205 53.978,9.233 53.847,9.236 Z M53.347,17.38 L54.351,17.38 L54.351,10.474 L53.347,10.474 L53.347,17.38 Z M59.786,17.525 C59.299,17.522 58.822,17.436 58.373,17.249 C57.942,17.072 57.554,16.818 57.223,16.491 C56.888,16.163 56.629,15.779 56.445,15.348 C56.255,14.897 56.165,14.417 56.163,13.927 C56.165,13.438 56.255,12.957 56.445,12.506 C56.629,12.075 56.888,11.691 57.222,11.364 C57.554,11.037 57.942,10.783 58.373,10.606 C58.822,10.419 59.3,10.332 59.786,10.33 C60.272,10.332 60.745,10.419 61.192,10.606 C61.622,10.783 62.008,11.037 62.339,11.364 C62.673,11.691 62.93,12.075 63.113,12.506 C63.307,12.957 63.394,13.437 63.396,13.927 C63.394,14.417 63.307,14.898 63.113,15.349 C62.93,15.779 62.673,16.163 62.339,16.49 C62.008,16.817 61.622,17.072 61.192,17.249 C60.745,17.435 60.272,17.522 59.786,17.525 Z M59.785,16.546 C60.138,16.544 60.483,16.482 60.808,16.344 C61.119,16.212 61.394,16.026 61.631,15.787 C61.867,15.547 62.051,15.267 62.18,14.956 C62.316,14.627 62.377,14.281 62.379,13.928 C62.377,13.573 62.316,13.227 62.18,12.899 C62.051,12.588 61.867,12.307 61.631,12.068 C61.394,11.828 61.119,11.643 60.808,11.511 C60.483,11.372 60.139,11.31 59.787,11.308 C59.432,11.31 59.088,11.373 58.761,11.511 C58.449,11.643 58.173,11.829 57.934,12.068 C57.696,12.308 57.512,12.588 57.381,12.899 C57.244,13.228 57.182,13.573 57.18,13.927 C57.182,14.282 57.244,14.627 57.38,14.955 C57.512,15.266 57.696,15.547 57.934,15.787 C58.173,16.026 58.449,16.212 58.761,16.344 C59.088,16.482 59.432,16.544 59.785,16.546 Z M66.212,11.304 C66.41,11.055 66.648,10.842 66.934,10.682 C67.383,10.433 67.875,10.328 68.386,10.329972 C68.888,10.332 69.385,10.429 69.824,10.681 C70.236,10.912 70.551,11.242 70.771,11.661 C71.009,12.113 71.102,12.619 71.104,13.127 L71.104,17.38 L70.086,17.38 L70.086,13.127 C70.086,12.792 70.031,12.454 69.88,12.152 C69.745,11.887 69.551,11.682 69.293,11.534 C69.002,11.368 68.664,11.31 68.333,11.308 C68.046,11.308 67.763,11.353 67.494,11.456 C67.24,11.552 67.019,11.7 66.83,11.895 C66.623,12.11 66.48,12.369 66.379,12.648 C66.256,12.996 66.214,13.377 66.212,13.744 L66.212,17.38 L65.208,17.38 L65.208,10.474 L66.212,10.474 L66.212,11.304 L66.212,11.304 Z" id="Fill-20"></path>
                <path d="M16.463,8.29 L11.8,8.29 L11.8,10.195 L17.453,10.195 L17.453,14.573 L8.322,14.573 L8.322,18.121 L3.085,18.121 C3.417,18.578 3.784,19.007 4.183,19.406 C6.131,21.354 8.822,22.559 11.795,22.559 C14.767,22.559 17.458,21.354 19.406,19.406 C21.354,17.458 22.559,14.766 22.559,11.794 C22.559,9.649 21.932,7.65 20.85,5.971 L22.053,5.971 C23.03,7.689 23.589,9.677 23.589,11.794 C23.589,15.05 22.268,17.999 20.134,20.133 C17.999,22.268 15.05,23.588 11.795,23.588 C8.538,23.588 5.589,22.268 3.455,20.133 C2.569,19.247 1.824,18.222 1.254,17.091 L7.293,17.091 L7.293,13.543 L16.423,13.543 L16.423,11.225 L10.771,11.225 L10.771,7.26 L16.463,7.26 L16.463,8.29 Z M7.293,11.704 L7.293,3.913 L19.126,3.913 C17.204,2.124 14.627,1.029 11.795,1.029 C8.822,1.029 6.131,2.234 4.183,4.182 C2.235,6.13 1.03,8.822 1.03,11.794 C1.03,13.31 1.343,14.753 1.909,16.062 L0.796,16.062 C0.282,14.738 -2.84217094e-14,13.299 -2.84217094e-14,11.794 C-2.84217094e-14,8.538 1.32,5.589 3.455,3.455 C5.589,1.32 8.538,-2.66453526e-14 11.795,-2.66453526e-14 C15.05,-2.66453526e-14 17.999,1.32 20.134,3.455 C20.594,3.914 21.015,4.412 21.395,4.942 L8.322,4.942 L8.322,11.704 L7.293,11.704 Z M8.113,19.131 L10.771,19.131 L10.771,15.602 L11.8,15.602 L11.8,20.16 L8.113,20.16 L8.113,19.131 L8.113,19.131 Z" id="Fill-21"></path>
                <path d="M7.818,18.773 C8.299,18.773 8.689,19.164 8.689,19.645 C8.689,20.126 8.299,20.517 7.818,20.517 C7.336,20.517 6.946,20.126 6.946,19.645 C6.946,19.164 7.336,18.773 7.818,18.773" id="Fill-22"></path>
                <path d="M7.818,11.152 C8.299,11.152 8.689,11.542 8.689,12.024 C8.689,12.505 8.299,12.895 7.818,12.895 C7.336,12.895 6.946,12.505 6.946,12.024 C6.946,11.542 7.336,11.152 7.818,11.152" id="Fill-23"></path>
                <path d="M17.047,6.904 C17.528,6.904 17.918,7.294 17.918,7.776 C17.918,8.256 17.528,8.647 17.047,8.647 C16.565,8.647 16.175,8.256 16.175,7.776 C16.175,7.294 16.565,6.904 17.047,6.904" id="Fill-24"></path>
            </g>
        </g>
    </g>
</svg>